<svg width="169" height="40" viewBox="0 0 169 40" fill="none" xmlns="http://www.w3.org/2000/svg">
<g clip-path="url(#clip0_14313_17)">
<path d="M59.1406 29V12.0898H57.0312V19.4023H47.75V12.0898H45.6406V29H47.75V21.3008H57.0312V29H59.1406ZM62.2109 29H64.25V16.8125H62.2109V29ZM63.2305 14.7617C63.9336 14.7617 64.5078 14.1875 64.5078 13.4961C64.5078 12.793 63.9336 12.2305 63.2305 12.2305C62.5391 12.2305 61.9648 12.793 61.9648 13.4961C61.9648 14.1875 62.5391 14.7617 63.2305 14.7617ZM74.2812 29.2812C78.0195 29.2812 80.5273 27.418 81.3008 24.0781H79.168C78.5586 26.1406 76.7773 27.3359 74.293 27.3359C70.9531 27.3359 68.832 24.6875 68.832 20.5391C68.832 16.4258 70.9766 13.7539 74.2812 13.7539C76.6953 13.7539 78.6289 15.207 79.168 17.4219H81.3008C80.7617 14.0469 77.9609 11.8086 74.2812 11.8086C69.6523 11.8086 66.6641 15.2305 66.6641 20.5391C66.6641 25.8945 69.6172 29.2812 74.2812 29.2812ZM88.5312 29.2109C91.8945 29.2109 94.168 26.7852 94.168 22.9062C94.168 19.0156 91.8945 16.6016 88.5312 16.6016C85.1562 16.6016 82.8828 19.0156 82.8828 22.9062C82.8828 26.7852 85.1562 29.2109 88.5312 29.2109ZM88.5312 27.418C86.375 27.418 84.957 25.7773 84.957 22.9062C84.957 20.0352 86.375 18.3945 88.5312 18.3945C90.6875 18.3945 92.0938 20.0352 92.0938 22.9062C92.0938 25.7773 90.6875 27.418 88.5312 27.418ZM106.238 16.8125H104.199V23.9727C104.199 26.0469 103.004 27.4062 101.023 27.4062C99.1367 27.4062 98.2109 26.3398 98.2109 24.3594V16.8125H96.1719V24.7227C96.1719 27.4883 97.7305 29.2109 100.391 29.2109C102.266 29.2109 103.531 28.4258 104.258 27.0195H104.305V29H106.238V16.8125ZM108.887 29H110.926V21.8281C110.926 19.7656 112.18 18.4062 114.102 18.4062C115.977 18.4062 116.902 19.4844 116.902 21.4531V29H118.941V21.0898C118.941 18.3242 117.395 16.6016 114.723 16.6016C112.836 16.6016 111.535 17.4453 110.855 18.7578H110.809V16.8125H108.887V29ZM121.332 20.1758C121.332 21.8398 122.387 22.9414 124.531 23.4922L126.676 24.043C128.047 24.4062 128.551 24.875 128.551 25.7422C128.551 26.8438 127.531 27.5469 125.879 27.5469C124.227 27.5469 123.266 26.8672 123.043 25.6016H121.004C121.215 27.7578 123.078 29.2109 125.75 29.2109C128.598 29.2109 130.602 27.7109 130.602 25.5898C130.602 23.7969 129.711 22.9062 127.25 22.2852L125.363 21.8281C123.98 21.4766 123.336 20.9141 123.336 20.0703C123.336 19.0039 124.32 18.2656 125.809 18.2656C127.309 18.2656 128.258 18.9922 128.398 20.1641H130.344C130.25 18.1016 128.398 16.6016 125.879 16.6016C123.195 16.6016 121.332 18.0898 121.332 20.1758ZM137.609 18.3711C139.531 18.3711 140.809 19.8242 140.855 21.8633H134.234C134.363 19.8359 135.699 18.3711 137.609 18.3711ZM140.809 25.5078C140.469 26.6562 139.332 27.4414 137.785 27.4414C135.594 27.4414 134.223 25.9062 134.223 23.5742V23.457H142.965V22.6836C142.965 18.9922 140.938 16.6016 137.645 16.6016C134.281 16.6016 132.125 19.168 132.125 22.9531C132.125 26.7852 134.246 29.2109 137.738 29.2109C140.398 29.2109 142.461 27.6406 142.812 25.5078H140.809ZM145.133 29H147.172V12.0898H145.133V29ZM154.977 29.2109C158.34 29.2109 160.613 26.7852 160.613 22.9062C160.613 19.0156 158.34 16.6016 154.977 16.6016C151.602 16.6016 149.328 19.0156 149.328 22.9062C149.328 26.7852 151.602 29.2109 154.977 29.2109ZM154.977 27.418C152.82 27.418 151.402 25.7773 151.402 22.9062C151.402 20.0352 152.82 18.3945 154.977 18.3945C157.133 18.3945 158.539 20.0352 158.539 22.9062C158.539 25.7773 157.133 27.418 154.977 27.418ZM162.676 29H164.715V21.4062C164.715 19.6836 165.746 18.5469 167.328 18.5469C167.82 18.5469 168.254 18.6055 168.418 18.6641V16.6836C168.254 16.6602 167.949 16.6016 167.598 16.6016C166.168 16.6016 165.043 17.457 164.645 18.8047H164.598V16.8125H162.676V29Z" fill="#1D1E37"/>
<path d="M20 40C31.0457 40 40 31.0457 40 20C40 8.9543 31.0457 0 20 0C8.9543 0 0 8.9543 0 20C0 31.0457 8.9543 40 20 40Z" fill="#7167E5"/>
<path d="M18.5 26V14.7266H16.4922V19.4141H11.0078V14.7266H8.99219V26H11.0078V21.1094H16.4922V26H18.5ZM26.0516 26.1875C28.7156 26.1875 30.5594 24.7266 30.9109 22.3125H28.9344C28.6219 23.6719 27.5516 24.4766 26.0594 24.4766C24.1062 24.4766 22.8719 22.8906 22.8719 20.3594C22.8719 17.8438 24.1141 16.25 26.0516 16.25C27.5125 16.25 28.6609 17.1797 28.9266 18.5938H30.9109C30.6609 16.1719 28.6687 14.5391 26.0516 14.5391C22.8484 14.5391 20.8094 16.7656 20.8094 20.3594C20.8094 23.9766 22.8328 26.1875 26.0516 26.1875Z" fill="white"/>
</g>
<defs>
<clipPath id="clip0_14313_17">
<rect width="169" height="40" fill="white"/>
</clipPath>
</defs>
</svg>
